<svg width="30" height="31" viewBox="0 0 30 31" fill="none" xmlns="http://www.w3.org/2000/svg">
<path d="M2.70001 4.90137H6.97501L9.45001 8.82729V18.0125C9.45001 19.2717 10.5 20.3088 11.775 20.3088H23.4C24.525 20.3088 25.5 19.494 25.725 18.3828L27.15 10.6791C27.375 9.64211 26.55 8.75322 25.5 8.75322H14.7" stroke="#13171C" stroke-width="2" stroke-miterlimit="10" stroke-linecap="round" stroke-linejoin="round"/>
<path d="M13.2 26.2347C14.2355 26.2347 15.075 25.4056 15.075 24.3829C15.075 23.3601 14.2355 22.531 13.2 22.531C12.1645 22.531 11.325 23.3601 11.325 24.3829C11.325 25.4056 12.1645 26.2347 13.2 26.2347Z" fill="#13171C"/>
<path d="M22.2 26.2347C23.2355 26.2347 24.075 25.4056 24.075 24.3829C24.075 23.3601 23.2355 22.531 22.2 22.531C21.1645 22.531 20.325 23.3601 20.325 24.3829C20.325 25.4056 21.1645 26.2347 22.2 26.2347Z" fill="#13171C"/>
</svg>
