<svg width="160" height="33" viewBox="0 0 160 33" fill="none" xmlns="http://www.w3.org/2000/svg">
<path d="M46.4695 19.8322H40.7665L43.0088 12.8802L29.8092 11.5675L25.2667 23.763H17.1401V10.3089L2 8.80199V32.6053H36.6361L38.2956 27.4748H48.8799L50.5 32.6053H79.0419L81.6436 32.5955L84.3537 32.6053H91.5954L94.1436 32.5955L96.9074 32.6176H125.087L126.741 27.4873H137.336L138.956 32.6176H154.144L153.458 31.2704L150.554 23.5835L114.938 20.0387L110.682 31.6342L108.844 19.4315L67.583 15.3262L65.2778 31.3614L58.8683 14.4609L44.3139 13.013L46.4695 19.8322Z" fill="#BE3D3D"/>
<path d="M43.6416 10.8817L43.8596 11.5651V11.5602L58.2486 12.8163L57.1168 9.8148L31.0776 8.12843L30.2399 10.3802L43.4343 11.5307L43.6416 10.8817Z" fill="#BE3D3D"/>
<path d="M32.2039 5.10232L31.4713 7.06893V7.0763L56.5602 8.37427L55.6045 5.857L32.2039 5.10232Z" fill="#BE3D3D"/>
<path d="M33.3566 2L32.6109 4.00348L55.0821 4.47054L54.1446 2H33.3566Z" fill="#BE3D3D"/>
<path d="M2 6.24542V7.91457V7.91702L17.1401 9.2371V7.22872L2 6.24542Z" fill="#BE3D3D"/>
<path d="M2 4.12147V5.54235V5.54973L17.1401 6.33391V4.61312L2 4.12147Z" fill="#BE3D3D"/>
<path d="M2 2V3.36679L17.1401 3.68145V2H2Z" fill="#BE3D3D"/>
<path d="M67.8223 13.6558L67.8221 13.657L67.8089 13.6546L67.8223 13.6558L68.2711 10.5351L87.3023 11.7642L88.0219 14.3601L88.6574 11.8527L107.893 13.0966L108.508 17.2043L67.8223 13.6558Z" fill="#BE3D3D"/>
<path d="M68.8829 6.28227L68.4942 8.98637H68.4863L86.7878 9.93524L85.9344 6.83293L68.8829 6.28227Z" fill="#BE3D3D"/>
<path d="M69.4972 2L69.1008 4.76307L85.4539 5.10232L84.5926 2H69.4972Z" fill="#BE3D3D"/>
<path d="M89.8993 6.95585L89.1115 10.0557H89.1169L107.586 11.012L107.061 7.50896L89.8993 6.95585Z" fill="#BE3D3D"/>
<path d="M91.1492 2L90.3377 5.19573L106.743 5.5448L106.218 2H91.1492Z" fill="#BE3D3D"/>
<path d="M117.246 13.7062L115.736 17.8312V17.8385L129.461 19.0357L130.9 14.5887L117.246 13.7062Z" fill="#BE3D3D"/>
<path d="M119.381 7.89981L118.034 11.5528L131.646 12.2509L132.09 10.8743L132.539 12.2976L146.565 13.0228L144.943 8.72334L119.381 7.89981Z" fill="#BE3D3D"/>
<path d="M121.55 2L120.135 5.82505V5.82997L144.029 6.32162L142.398 2H121.55Z" fill="#BE3D3D"/>
<path d="M147.556 15.6675L147.553 15.6581L147.563 15.6679L147.556 15.6675L149.485 20.7737L134.81 19.5028L133.308 14.7461L147.556 15.6675Z" fill="#BE3D3D"/>
</svg>
