<svg width="30" height="30" viewBox="0 0 30 30" fill="none" xmlns="http://www.w3.org/2000/svg">
<path d="M28.2629 13.5207C28.2629 17.9434 25.9588 21.1083 22.5258 23.3506C21.5825 23.9691 20.5619 24.4485 19.4794 24.7423C18.6443 24.9743 17.7783 25.098 16.8814 25.098H7.98454L2 28.397V12.5258H6.24227C6.24227 5.2114 11.5 2.34943 16.5 2.00009C23.5825 1.50524 28.2629 6.50009 28.2629 13.5207Z" stroke="#BE3D3D" stroke-width="1.4" stroke-miterlimit="10" stroke-linecap="round" stroke-linejoin="round"/>
<path d="M17 18C19.7614 18 22 15.7614 22 13C22 10.2386 19.7614 8 17 8C14.2386 8 12 10.2386 12 13C12 15.7614 14.2386 18 17 18Z" stroke="#BE3D3D" stroke-width="1.4" stroke-miterlimit="10" stroke-linecap="round" stroke-linejoin="round"/>
</svg>
