<svg width="30" height="30" viewBox="0 0 30 30" fill="none" xmlns="http://www.w3.org/2000/svg">
<path d="M28.1358 5.51458V8.47122C28.1358 11.9568 25.3092 14.7834 21.8237 14.7834H20.341C17.8786 12.1562 15.2861 11.3227 14.9046 11.0626C14.5391 11.3204 11.1763 12.5897 9.19941 14.7834H8.00287C4.51732 14.7834 1.69073 11.9568 1.69073 8.47122V5.50591C1.69073 4.60417 2.34102 3.8325 3.23409 3.67643C7.09247 3.01747 10.9942 2.68799 14.9046 2.68799C18.763 2.68799 22.6127 3.0088 26.4277 3.65909L26.5925 3.6851C27.4855 3.8325 28.1358 4.60417 28.1358 5.51458Z" stroke="#BE3D3D" stroke-width="1.4" stroke-miterlimit="10" stroke-linecap="round" stroke-linejoin="round"/>
<path d="M8.8699 23.9221C8.8699 24.0955 8.86123 24.2602 8.84389 24.4249V24.4336C8.82655 24.5984 8.80921 24.7544 8.78319 24.9105C8.75718 25.0492 8.73117 25.188 8.70516 25.318C8.69649 25.344 8.68782 25.3787 8.68782 25.4047C8.67915 25.4394 8.67048 25.4741 8.66181 25.5001C8.65314 25.5261 8.64447 25.5608 8.6358 25.5868C8.62712 25.6215 8.61845 25.6562 8.60111 25.6908C8.5751 25.7602 8.55776 25.8296 8.53175 25.8989C8.24562 26.6793 7.77741 27.2775 7.14447 27.5723C7.08377 27.5984 7.03175 27.6244 6.97106 27.6417C5.32366 28.2226 3.23406 26.4972 2.27163 23.5839C1.28319 20.6012 1.90747 17.6706 3.60689 16.9856C3.66759 16.9596 3.72828 16.9423 3.78897 16.9249C4.47395 16.7255 5.21961 16.9076 5.91325 17.3758C5.94793 17.4018 5.98262 17.4192 6.0173 17.4452C6.03464 17.4625 6.06065 17.4712 6.07799 17.4885C6.09533 17.5059 6.12134 17.5145 6.13869 17.5319C6.17337 17.5579 6.20805 17.5839 6.24273 17.6186L6.2514 17.6273C6.28608 17.6533 6.32077 17.688 6.35545 17.714C6.39013 17.7486 6.42481 17.7747 6.45949 17.8093C6.49418 17.8353 6.52019 17.87 6.55487 17.896C6.56354 17.9047 6.56354 17.9047 6.57221 17.9134C6.60689 17.9481 6.63291 17.9741 6.66759 18.0088C6.70227 18.0434 6.73695 18.0781 6.77163 18.1128C6.79764 18.1475 6.83233 18.1735 6.85834 18.2082C7.00574 18.3729 7.15314 18.555 7.28319 18.7458C7.30921 18.7804 7.32655 18.8064 7.35256 18.8411C7.38724 18.8932 7.42192 18.9365 7.4566 18.9885C7.48262 19.0319 7.50863 19.0666 7.53464 19.1099C7.56065 19.1533 7.58666 19.188 7.604 19.2313C7.63001 19.2747 7.65603 19.3093 7.67337 19.3527C7.69938 19.396 7.71672 19.4307 7.74273 19.4741C7.78608 19.5521 7.82944 19.6388 7.88146 19.7255C7.90747 19.7689 7.92481 19.8122 7.94215 19.8556C7.96817 19.8989 7.98551 19.9423 8.00285 19.9856C8.02019 20.029 8.0462 20.0723 8.06354 20.1157C8.08088 20.159 8.10689 20.2024 8.12423 20.2544C8.14158 20.2978 8.15892 20.3411 8.17626 20.3845C8.17626 20.3932 8.17626 20.3932 8.18493 20.4018C8.20227 20.4452 8.21961 20.4885 8.23695 20.5319C8.25429 20.5752 8.27163 20.6186 8.28897 20.6619C8.28897 20.6706 8.29764 20.6793 8.29764 20.688C8.31499 20.7313 8.32366 20.766 8.341 20.8093C8.39302 20.9567 8.43637 21.1041 8.4884 21.2515C8.5751 21.529 8.64447 21.7978 8.69649 22.0752C8.73117 22.24 8.75718 22.396 8.78319 22.5608C8.79186 22.6128 8.80054 22.6648 8.80921 22.7169C8.82655 22.8556 8.84389 22.9943 8.85256 23.133C8.86123 23.3932 8.8699 23.6619 8.8699 23.9221Z" stroke="#BE3D3D" stroke-width="1.4" stroke-miterlimit="10" stroke-linecap="round" stroke-linejoin="round"/>
<path d="M10.0838 26.1938C10.0404 26.2285 9.98842 26.2631 9.9364 26.2978C9.91906 26.3065 9.90172 26.3152 9.88437 26.3238C9.83235 26.3585 9.78033 26.3845 9.71963 26.4105L7.13582 27.5637C7.7601 27.2776 8.22831 26.6793 8.5231 25.8903C8.54044 25.847 8.54911 25.8123 8.56646 25.7689C8.57513 25.7429 8.5838 25.7082 8.59247 25.6822C8.60114 25.6475 8.61848 25.6129 8.62715 25.5782C8.63582 25.5522 8.64449 25.5261 8.65316 25.4915C8.66183 25.4568 8.6705 25.4308 8.67917 25.3961C8.68784 25.3701 8.69651 25.3441 8.69651 25.3094C8.7312 25.1793 8.75721 25.0406 8.77455 24.9019C8.80056 24.7458 8.8179 24.5897 8.83524 24.425V24.4163C8.85258 24.2516 8.86125 24.0868 8.86125 23.9134C8.86992 23.6533 8.85258 23.3845 8.83524 23.1157C8.82657 22.977 8.80923 22.8383 8.79189 22.6996C8.78322 22.6475 8.77455 22.5955 8.76588 22.5435C8.73987 22.3788 8.71385 22.2227 8.67917 22.0579C8.62715 21.7892 8.55778 21.5117 8.47108 21.2342C8.42773 21.0868 8.3757 20.9394 8.32368 20.792C8.30634 20.7487 8.29767 20.714 8.28033 20.6707C8.28033 20.662 8.27166 20.6533 8.27166 20.6446C8.25432 20.6013 8.23698 20.5579 8.21964 20.5146C8.20229 20.4712 8.18495 20.4279 8.16761 20.3845C8.16761 20.3845 8.16761 20.3759 8.15894 20.3759C8.1416 20.3325 8.12426 20.2892 8.10692 20.2458C8.08958 20.2025 8.06357 20.1591 8.04622 20.1071C8.02888 20.0637 8.00287 20.0204 7.98553 19.977C7.96819 19.9337 7.94218 19.8903 7.92484 19.847C7.89883 19.8036 7.88148 19.7603 7.85547 19.7169C7.81212 19.6302 7.76877 19.5522 7.72541 19.4655C7.6994 19.4221 7.68206 19.3788 7.65605 19.3441C7.63004 19.3007 7.6127 19.266 7.58669 19.2227C7.56068 19.1793 7.54333 19.1446 7.51732 19.1013C7.49131 19.0579 7.4653 19.0233 7.43929 18.9799C7.40461 18.9279 7.36992 18.8759 7.33524 18.8325C7.30923 18.7978 7.29189 18.7718 7.26588 18.7371C7.12715 18.5464 6.98842 18.3643 6.84102 18.1996C6.81501 18.1735 6.789 18.1475 6.76299 18.1129L6.75432 18.1042C6.71963 18.0695 6.68495 18.0348 6.65027 18.0001C6.61559 17.9655 6.58958 17.9308 6.55489 17.9048C6.54622 17.8961 6.54622 17.8961 6.53755 17.8874C6.50287 17.8527 6.47686 17.8267 6.44218 17.8007C6.4075 17.766 6.37281 17.7314 6.33813 17.7053C6.30345 17.6793 6.26877 17.6446 6.23409 17.6186C6.23409 17.6186 6.22542 17.6186 6.22542 17.61C6.19073 17.584 6.15605 17.5493 6.12137 17.5233C6.10403 17.5059 6.07802 17.4972 6.06068 17.4799C6.04333 17.4626 6.01732 17.4539 5.99998 17.4366C5.9653 17.4105 5.93062 17.3845 5.89594 17.3672C5.25432 16.9337 4.57802 16.7429 3.94507 16.873L6.66761 16.1967C6.74565 16.1707 6.82368 16.1533 6.91039 16.1446C7.24854 16.0926 7.59536 16.1446 7.94218 16.292C7.96819 16.3007 7.98553 16.3094 8.01154 16.3181C9.20807 16.8383 10.3613 18.3903 10.9422 20.4019C11.6532 22.8556 11.2717 25.292 10.0838 26.1938Z" stroke="#BE3D3D" stroke-width="1.4" stroke-miterlimit="10" stroke-linecap="round" stroke-linejoin="round"/>
<path d="M20.8266 23.9221C20.8266 24.0955 20.8353 24.2602 20.8526 24.4249V24.4336C20.87 24.5984 20.8873 24.7544 20.9133 24.9105C20.9393 25.0492 20.9653 25.188 20.9913 25.318C21 25.344 21.0087 25.3787 21.0087 25.4047C21.0174 25.4394 21.026 25.4741 21.0347 25.5001C21.0434 25.5261 21.052 25.5608 21.0607 25.5868C21.0694 25.6215 21.078 25.6562 21.0954 25.6908C21.1214 25.7602 21.1387 25.8296 21.1648 25.8989C21.4509 26.6793 21.9191 27.2775 22.552 27.5723C22.6127 27.5984 22.6648 27.6244 22.7254 27.6417C24.3728 28.2226 26.4624 26.4972 27.4249 23.5839C28.4133 20.6012 27.789 17.6706 26.0896 16.9856C26.0289 16.9596 25.9682 16.9423 25.9075 16.9249C25.2226 16.7255 24.4769 16.9076 23.7832 17.3758C23.7486 17.4018 23.7139 17.4192 23.6792 17.4452C23.6619 17.4625 23.6358 17.4712 23.6185 17.4885C23.6012 17.5059 23.5752 17.5145 23.5578 17.5319C23.5231 17.5579 23.4884 17.5839 23.4538 17.6186L23.4451 17.6273C23.4104 17.6533 23.3757 17.688 23.3411 17.714C23.3064 17.7486 23.2717 17.7747 23.237 17.8093C23.2023 17.8353 23.1763 17.87 23.1416 17.896C23.133 17.9047 23.133 17.9047 23.1243 17.9134C23.0896 17.9481 23.0636 17.9741 23.0289 18.0088C22.9942 18.0434 22.9595 18.0781 22.9249 18.1128C22.8989 18.1475 22.8642 18.1735 22.8382 18.2082C22.6908 18.3729 22.5434 18.555 22.4133 18.7458C22.3873 18.7804 22.37 18.8064 22.3439 18.8411C22.3093 18.8932 22.2746 18.9365 22.2399 18.9885C22.2139 19.0319 22.1879 19.0666 22.1619 19.1099C22.1358 19.1533 22.1098 19.188 22.0925 19.2313C22.0665 19.2747 22.0405 19.3093 22.0231 19.3527C21.9971 19.396 21.9798 19.4307 21.9538 19.4741C21.9104 19.5521 21.8671 19.6388 21.815 19.7255C21.789 19.7689 21.7717 19.8122 21.7543 19.8556C21.7283 19.8989 21.711 19.9423 21.6937 19.9856C21.6763 20.029 21.6503 20.0723 21.633 20.1157C21.6156 20.159 21.5896 20.2024 21.5723 20.2544C21.5549 20.2978 21.5376 20.3411 21.5202 20.3845C21.5202 20.3932 21.5202 20.3932 21.5116 20.4018C21.4942 20.4452 21.4769 20.4885 21.4595 20.5319C21.4422 20.5752 21.4249 20.6186 21.4075 20.6619C21.4075 20.6706 21.3989 20.6793 21.3989 20.688C21.3815 20.7313 21.3728 20.766 21.3555 20.8093C21.3035 20.9567 21.2601 21.1041 21.2081 21.2515C21.1214 21.529 21.052 21.7978 21 22.0752C20.9653 22.24 20.9393 22.396 20.9133 22.5608C20.9046 22.6128 20.896 22.6648 20.8873 22.7169C20.87 22.8556 20.8526 22.9943 20.8439 23.133C20.8353 23.3932 20.8266 23.6619 20.8266 23.9221Z" stroke="#BE3D3D" stroke-width="1.4" stroke-miterlimit="10" stroke-linecap="round" stroke-linejoin="round"/>
<path d="M23.0115 16.1966L25.7341 16.8729C25.0925 16.7428 24.4162 16.9336 23.7832 17.3671C23.7485 17.3931 23.7139 17.4105 23.6792 17.4365C23.6618 17.4538 23.6358 17.4625 23.6185 17.4798C23.6011 17.4972 23.5751 17.5058 23.5578 17.5232C23.5231 17.5492 23.4884 17.5752 23.4537 17.6099L23.4451 17.6186C23.4104 17.6446 23.3757 17.6792 23.341 17.7053C23.3063 17.7313 23.2717 17.766 23.237 17.8006C23.2023 17.8266 23.1763 17.8613 23.1416 17.8873C23.1329 17.896 23.1329 17.896 23.1243 17.9047C23.0896 17.9394 23.0636 17.9654 23.0289 18.0001C23.0029 18.0261 22.9855 18.0434 22.9595 18.0694C22.9422 18.0868 22.9335 18.0954 22.9248 18.1128C22.8988 18.1475 22.8728 18.1735 22.8381 18.2081C22.6907 18.3729 22.552 18.555 22.4133 18.7457C22.3873 18.7804 22.3699 18.8064 22.3439 18.8411C22.3092 18.8931 22.2745 18.9365 22.2399 18.9885C22.2139 19.0318 22.1878 19.0665 22.1618 19.1099C22.1358 19.1532 22.1098 19.1879 22.0925 19.2313C22.0665 19.266 22.0404 19.3093 22.0231 19.3527C21.9971 19.396 21.9797 19.4307 21.9537 19.474C21.9104 19.5608 21.8584 19.6388 21.815 19.7255C21.789 19.7688 21.7717 19.8122 21.7456 19.8555C21.7196 19.8989 21.7023 19.9423 21.685 19.9856C21.6676 20.029 21.6416 20.0723 21.6243 20.1157C21.6069 20.159 21.5809 20.2024 21.5636 20.2544C21.5462 20.2977 21.5289 20.3411 21.5115 20.3845C21.5115 20.3845 21.5115 20.3931 21.5029 20.3931C21.4855 20.4365 21.4682 20.4798 21.4508 20.5232C21.4335 20.5665 21.4162 20.6099 21.3988 20.6532C21.3988 20.6619 21.3902 20.6706 21.3902 20.6792C21.3728 20.7226 21.3641 20.7573 21.3468 20.8006C21.2948 20.948 21.2514 21.0868 21.1994 21.2428C21.1127 21.5203 21.0433 21.7891 20.9913 22.0665C20.9566 22.2313 20.9306 22.3873 20.9046 22.5521C20.8959 22.6041 20.8873 22.6561 20.8786 22.7081C20.8613 22.8469 20.8439 22.9856 20.8352 23.1243C20.8092 23.3931 20.8006 23.6619 20.8092 23.922C20.8092 24.0954 20.8179 24.2602 20.8352 24.4249V24.4336C20.8526 24.5983 20.8699 24.7544 20.8959 24.9105C20.9219 25.0492 20.948 25.1879 20.974 25.318C20.9826 25.344 20.9913 25.3787 20.9913 25.4047C21 25.4394 21.0086 25.474 21.0173 25.5001C21.026 25.5261 21.0347 25.5608 21.0433 25.5868C21.0433 25.5954 21.052 25.6128 21.052 25.6214C21.0607 25.6475 21.0693 25.6648 21.078 25.6908C21.104 25.7602 21.1214 25.8295 21.1474 25.8989C21.4335 26.6792 21.9017 27.2775 22.5347 27.5723L19.9508 26.4191C19.8988 26.3931 19.8468 26.3671 19.7948 26.3324C19.7774 26.3238 19.7601 26.3151 19.7428 26.3064C19.7428 26.3064 19.7341 26.3064 19.7341 26.2977C18.4422 25.474 18.0086 22.9596 18.737 20.4018C19.3092 18.3902 20.4624 16.8382 21.6676 16.318H21.6763C22.0404 16.1619 22.4133 16.1012 22.7688 16.1532C22.8555 16.1532 22.9335 16.1706 23.0115 16.1966Z" stroke="#BE3D3D" stroke-width="1.4" stroke-miterlimit="10" stroke-linecap="round" stroke-linejoin="round"/>
<path d="M20.341 14.7833C20.8006 15.2689 21.2515 15.7804 21.6763 16.3093H21.6676C20.4711 16.8296 19.3179 18.3816 18.737 20.3932C18.0087 22.951 18.4422 25.4654 19.7341 26.2891C18.8237 26.5406 17.3497 26.7486 14.948 26.7486C13.0925 26.7486 11.4538 26.5145 10.0752 26.1937C11.2543 25.2833 11.6358 22.8556 10.9335 20.3932C10.3613 18.3816 9.2081 16.8296 8.0029 16.3093C7.97689 16.3007 7.95954 16.292 7.93353 16.2833C8.33238 15.7544 8.74856 15.2515 9.17342 14.7747" stroke="#BE3D3D" stroke-width="1.4" stroke-miterlimit="10" stroke-linecap="round" stroke-linejoin="round"/>
</svg>
