<svg width="30" height="30" viewBox="0 0 30 30" fill="none" xmlns="http://www.w3.org/2000/svg">
<path d="M18.0313 16.1686H11.2291C8.38376 16.1686 6.0719 13.8567 6.0719 11.0114V8.14377C6.0719 4.85382 8.73943 2.16406 12.0516 2.16406H17.2311C20.521 2.16406 23.2108 4.83159 23.2108 8.14377V11.0114C23.1885 13.8567 20.8767 16.1686 18.0313 16.1686Z" stroke="#BE3D3D" stroke-width="1.4" stroke-miterlimit="10" stroke-linecap="round" stroke-linejoin="round"/>
<path d="M18.0313 16.1685H11.2291C8.38376 16.1685 6.0719 13.8566 6.0719 11.0112V9.27734H23.1885V11.0112C23.1885 13.8566 20.8767 16.1685 18.0313 16.1685Z" stroke="#BE3D3D" stroke-width="1.4" stroke-miterlimit="10" stroke-linecap="round" stroke-linejoin="round"/>
<path d="M18.1875 16.1685H11.2952V18.836H18.1875V16.1685Z" stroke="#BE3D3D" stroke-width="1.4" stroke-miterlimit="10" stroke-linecap="round" stroke-linejoin="round"/>
<path d="M3.61855 16.5234C3.61855 16.5234 2.57355 18.7113 4.34551 20.8744C6.11747 23.0374 8.7527 22.6148 8.7527 22.6148C8.7527 22.6148 8.77542 27.8359 14.9546 27.8359H15.0454C21.2473 27.8359 21.2473 22.6148 21.2473 22.6148C21.2473 22.6148 23.8825 23.0623 25.6545 20.8744C27.4265 18.6865 26.3814 16.5234 26.3814 16.5234" stroke="#BE3D3D" stroke-width="1.4" stroke-miterlimit="10" stroke-linecap="round" stroke-linejoin="round"/>
</svg>
