<svg width="30" height="30" viewBox="0 0 30 30" fill="none" xmlns="http://www.w3.org/2000/svg">
<path d="M25.8181 13.9174L13.7338 25.1394C12.987 25.8329 9.91724 23.7526 6.8911 20.4939C3.86496 17.2352 2.01723 14.0201 2.76402 13.3266L14.8484 2.10464C15.5952 1.41115 18.6649 3.49145 21.6911 6.75015C24.7172 10.0089 26.5649 13.224 25.8181 13.9174Z" stroke="#BE3D3D" stroke-width="1.4" stroke-miterlimit="10" stroke-linecap="round" stroke-linejoin="round"/>
<path d="M25.8181 13.9174C25.5737 14.1444 25.0781 14.0736 24.4079 13.7604C23.0549 13.1203 21.0055 11.458 18.9755 9.27193C16.9454 7.08589 15.4391 4.91922 14.9008 3.52261C14.6379 2.83109 14.604 2.3316 14.8484 2.10464C15.5952 1.41115 18.6649 3.49145 21.6911 6.75015C24.7172 10.0089 26.5649 13.224 25.8181 13.9174Z" stroke="#BE3D3D" stroke-width="1.4" stroke-miterlimit="10" stroke-linecap="round" stroke-linejoin="round"/>
<path d="M27.8938 25.3959C27.8938 27.1163 26.5686 28.4563 25 28.4563C23.4314 28.4563 22.1062 27.1163 22.1062 25.3959C22.1062 25.1559 22.1837 24.8172 22.3557 24.3877C22.524 23.9674 22.7644 23.5052 23.0457 23.0318C23.6082 22.085 24.3034 21.1447 24.8205 20.4848C24.9167 20.362 25.0833 20.362 25.1795 20.4848C25.6966 21.1447 26.3918 22.085 26.9543 23.0318C27.2356 23.5052 27.476 23.9674 27.6443 24.3877C27.8163 24.8172 27.8938 25.1559 27.8938 25.3959Z" stroke="#BE3D3D" stroke-width="1.4"/>
</svg>
