<svg width="30" height="30" viewBox="0 0 30 30" fill="none" xmlns="http://www.w3.org/2000/svg">
<path d="M28.8182 5.10902V5.79993C28.8182 6.01812 28.6545 6.19993 28.4364 6.2363L21.7273 7.09084H15.5V3.81812H21.7273L28.4364 4.67266C28.6545 4.70902 28.8182 4.89084 28.8182 5.10902Z" stroke="#BE3D3D" stroke-width="1.4" stroke-miterlimit="10" stroke-linecap="round" stroke-linejoin="round"/>
<path d="M13.3576 17.2014C12.9177 17.1966 12.4978 17.0172 12.1902 16.7028C11.8826 16.3883 11.7125 15.9646 11.7174 15.5247C11.7214 15.1617 11.7968 14.8031 11.9394 14.4693C12.082 14.1354 12.289 13.833 12.5485 13.5791C12.8079 13.3253 13.1149 13.125 13.4518 12.9898C13.7887 12.8546 14.1489 12.787 14.5119 12.791C15.5382 12.8023 16.518 13.2209 17.2357 13.9546C17.9534 14.6883 18.3503 15.677 18.339 16.7033C18.3245 18.0229 17.7864 19.2826 16.8431 20.2054C15.8998 21.1282 14.6285 21.6385 13.3089 21.624C11.6967 21.6044 10.1581 20.9461 9.03065 19.7936C7.90318 18.641 7.27892 17.0883 7.29482 15.4761C7.31798 13.5708 8.09594 11.7524 9.45804 10.42C10.8201 9.0875 12.6552 8.34973 14.5605 8.36849C16.759 8.39524 18.857 9.29289 20.3945 10.8645C21.9319 12.4362 22.7832 14.5535 22.7616 16.752C22.7316 19.2437 21.7144 21.6217 19.9331 23.3642C18.1518 25.1067 15.752 26.0714 13.2603 26.0465C10.4755 26.013 7.81777 24.876 5.87026 22.8852C3.92276 20.8944 2.84457 18.2123 2.87227 15.4274C2.90942 12.3495 4.16605 9.41207 6.36642 7.25958C8.5668 5.10708 11.5312 3.91538 14.6092 3.94594" stroke="#BE3D3D" stroke-width="1.4" stroke-linecap="round"/>
</svg>

